<?xml version="1.0" encoding="UTF-8"?>
<svg xmlns="http://www.w3.org/2000/svg" width="1200" height="630" viewBox="0 0 1200 630" role="img">
  <title>Pick 1, 2, or close</title>
  <defs>
    <linearGradient id="bg" x1="0" y1="0" x2="1" y2="1">
      <stop offset="0" stop-color="#071018"/>
      <stop offset="1" stop-color="#0f172a"/>
    </linearGradient>
    <linearGradient id="mark" x1="0" y1="0" x2="1" y2="1">
      <stop offset="0" stop-color="#0ea5e9"/>
      <stop offset="1" stop-color="#14b8a6"/>
    </linearGradient>
  </defs>
  <rect width="1200" height="630" fill="url(#bg)"/>
  <circle cx="980" cy="70" r="280" fill="#fb7185" fill-opacity="0.18"/>
  <circle cx="180" cy="560" r="200" fill="#14b8a6" fill-opacity="0.08"/>
  <rect x="72" y="72" width="56" height="56" rx="16" fill="url(#mark)"/>
  <path d="M84.2 86.7h12.35v3.95h-8v2.05h7.15v3.75h-7.15V103.3H84.2V86.7Z" fill="#fff"/>
  <rect x="97.2" y="92.35" width="2.35" height="5.5" rx="0.75" fill="#fff"/>
  <text x="148" y="108" fill="#7dd3fc" font-family="system-ui, Segoe UI, sans-serif" font-size="22" font-weight="600">Speed Box · صندوق السرعة</text>
  <text x="72" y="200" fill="#f8fafc" font-family="system-ui, Segoe UI, sans-serif" font-size="44" font-weight="700">Pick 1, 2, or close</text>
  
  <rect x="72" y="250" width="420" height="300" rx="28" fill="#0b1220" stroke="#1e293b"/>
  <rect x="110" y="290" width="340" height="64" rx="14" fill="#082f49"/>
  <text x="130" y="332" fill="#e0f2fe" font-family="system-ui, sans-serif" font-size="24">1  هل هذا هو</text>
  <rect x="110" y="370" width="340" height="64" rx="14" fill="#111827"/>
  <text x="130" y="412" fill="#cbd5e1" font-family="system-ui, sans-serif" font-size="24">2  ghl hghl</text>
  <text x="130" y="500" fill="#94a3b8" font-family="system-ui, sans-serif" font-size="20">3  Close · أغلق</text>
</svg>